<?xml version="1.0" encoding="UTF-8"?>
<svg xmlns="http://www.w3.org/2000/svg" viewBox="0 0 800 200">
<defs>
<style>
.owl-colored { fill: #fc764c; }
.text {
    fill: #ffffff;
    font-family: Poppins, sans-serif;
    font-size: 120px;
    font-weight: 400;
    letter-spacing: -1px;
}
</style>
</defs>

<!-- Text first (moved left) -->
<text x="20" y="130" class="text">aletyx</text>

<!-- Owl Logo (scaled larger and repositioned) -->
<g transform="translate(380, 45) scale(0.45, 0.45)">
<path class="owl-colored" d="M470.1,446.05s3.5-8.48,19.76-15.81l32.54-14.19v-19.85s-24.22,11.09-32.54,14.19c-16.07,5.98-19.76,15.81-19.76,15.81,0,0-3.62-10.05-19.76-15.81-8.27-2.95-32.54-13.19-32.54-13.19v19.85l32.54,13.19c16.2,7.19,19.76,15.81,19.76,15.81Z"/>
<path class="owl-colored" d="M517.41,427.08l-7.9,3.69,1.71,1.94c2.8,4,4.45,8.87,4.45,14.12,0,13.62-11.08,24.7-24.7,24.7-6.75,0-13.05-2.68-17.75-7.53l-2.99-3.1-3,3.1c-4.7,4.86-11,7.53-17.75,7.53-13.61,0-24.69-11.08-24.69-24.7,0-5.2,1.61-10.02,4.36-14l1.68-1.9-7.91-3.7c-4.06,5.49-6.46,12.27-6.46,19.6,0,18.22,14.81,33.03,33.02,33.03,5.64,0,11.04-1.39,15.84-4.03c1.2,2,2.92,4.31,5.38,6.5,2.29-2.05,3.96-4.21,5.15-6.11,4.61,2.39,9.77,3.65,15.13,3.65,18.21,0,33.03-14.81,33.03-33.03,0-7.4-2.45-14.24-6.58-19.75Z"/>
<path class="owl-colored" d="M477,449.07c1.08,6.73,6.93,11.9,13.96,11.9,7.79,0,14.13-6.34,14.13-14.13,0-3.26-1.11-6.27-2.97-8.66-2.62,1.3-5.41,2.5-8.33,3.61,1.77.99,2.97,2.89,2.97,5.05,0,3.2-2.6,5.8-5.8,5.8s-5.8-2.6-5.8-5.8c0-.69.12-1.35.35-1.96-3.61,1.48-6.38,2.89-8.51,4.19Z"/>
<path class="owl-colored" d="M446.55,441.85c-2.91-1.1-5.69-2.29-8.3-3.58-1.82,2.38-2.91,5.35-2.91,8.57,0,7.79,6.34,14.13,14.13,14.13,7,0,12.81-5.1,13.93-11.77-2.1-1.31-4.85-2.72-8.44-4.2.2.58.31,1.19.31,1.84,0,3.2-2.6,5.8-5.8,5.8s-5.79-2.6-5.79-5.8c0-2.13,1.15-3.99,2.87-4.99Z"/>
</g>
</svg>
