<?xml version="1.0" encoding="UTF-8"?>
<svg viewBox="0.001 0 2600 435.59" width="2884.265" height="435.59" xmlns="http://www.w3.org/2000/svg">
  <defs>
    <style>
      .cls-1 {
        fill: #fff;
      }
	  .text {
    fill: #ffffff;
    font-family: Poppins, sans-serif;
    font-size: 260px;
    font-weight: 400;
    letter-spacing: -1px;
}
    </style>
  </defs>
  <g id="Layer_1-2" data-name="Layer 1">
    <g>
      <path class="cls-1" d="M469.94,155.37l-9.28-14.39,30.97-13.49V0l-27.29,12.51c-4.22,1.93-103.81,47.44-137.86,60.11-40.21,14.98-64.22,35.59-77.59,50.92-13.44-15.63-37.62-36.51-78.28-51.02-31.28-11.18-119.96-48.34-137.42-55.67L5.73,5.24v126.9l30.64,12.42-4.98,6.72C10.85,179.05,0,211.99,0,246.56c0,88.5,71.99,160.51,160.47,160.51,20.86,0,42-4.17,61.25-12.07,4.99,6.31,10.59,12.27,16.66,17.73l12.8,11.45,12.85-11.45c5.59-4.99,10.86-10.55,15.69-16.52,18.34,7.11,38.43,10.86,58.2,10.86,88.51,0,160.51-72,160.51-160.51,0-32.81-9.86-64.36-28.48-91.19Z"/>
      <g>
        <path d="M278.19,256.08c4.62,28.78,29.64,50.89,59.7,50.89,33.32,0,60.43-27.11,60.43-60.43,0-13.94-4.75-26.82-12.7-37.04-11.21,5.56-23.14,10.69-35.63,15.44,7.57,4.23,12.7,12.36,12.7,21.6,0,13.69-11.12,24.8-24.81,24.8s-24.81-11.12-24.81-24.8c0-2.95.51-5.77,1.5-8.38-15.44,6.33-27.29,12.36-36.4,17.92Z"/>
        <path d="M147.96,225.2c-12.45-4.7-24.34-9.79-35.5-15.31-7.78,10.18-12.45,22.88-12.45,36.65,0,33.32,27.11,60.43,60.43,60.43,29.94,0,54.79-21.81,59.58-50.34-8.98-5.6-20.74-11.63-36.1-17.96.86,2.48,1.33,5.09,1.33,7.87,0,13.69-11.12,24.8-24.81,24.8s-24.76-11.12-24.76-24.8c0-9.11,4.92-17.07,12.27-21.34Z"/>
        <path d="M248.67,243.19s14.96-36.28,84.53-67.62l139.17-60.68V29.99s-103.6,47.45-139.17,60.68c-68.74,25.56-84.53,67.62-84.53,67.62,0,0-15.47-42.96-84.53-67.62C128.78,78.04,24.97,34.26,24.97,34.26v84.9l139.17,56.4c69.3,30.74,84.53,67.62,84.53,67.62Z"/>
        <path d="M451.03,162.06v-.02h-.01s0,0,0,0c0,0,0,0-.01.01l-33.8,15.8,7.32,8.29s-.01.01-.02.02c11.98,17.11,19.03,37.94,19.03,60.39,0,58.25-47.39,105.64-105.64,105.64-28.87,0-55.81-11.46-75.91-32.2l-12.79-13.26-12.83,13.26c-20.1,20.78-47.04,32.2-75.91,32.2-58.21,0-105.59-47.39-105.59-105.64,0-22.24,6.89-42.85,18.65-59.88l7.18-8.14-33.83-15.81c-17.36,23.48-27.63,52.48-27.63,83.83,0,77.92,63.34,141.26,141.22,141.26,24.12,0,47.22-5.94,67.74-17.23,0,0,0,0,.01,0,5.13,8.53,12.5,18.42,22.99,27.78,9.81-8.77,16.93-18,22-26.14,19.71,10.22,41.78,15.6,64.69,15.6,77.88,0,141.26-63.34,141.26-141.26,0-31.64-10.47-60.88-28.12-84.49Z"/>
      </g>
    </g>
  </g>

  <!-- Text -->
<!-- <text x="250" y="495" class="text">designer</text> -->
<text x="600" y="290" class="text">aletyx designer</text>
</svg>
